<svg xmlns="http://www.w3.org/2000/svg" width="222.642" height="222.642" viewBox="0 0 222.642 222.642">
  <g id="Group_47" data-name="Group 47" transform="translate(-1634 -523)">
    <ellipse id="Ellipse_3" data-name="Ellipse 3" cx="90" cy="90" rx="90" ry="90" transform="translate(1634 572.615) rotate(-16)" fill="none"/>
    <g id="Ellipse_6" data-name="Ellipse 6" transform="translate(1643 577.63) rotate(-16)" fill="none" stroke="#5037ff" stroke-width="2" stroke-dasharray="1 0">
      <ellipse cx="82.773" cy="82.773" rx="82.773" ry="82.773" stroke="none"/>
      <ellipse cx="82.773" cy="82.773" rx="81.773" ry="81.773" fill="none"/>
    </g>
    <g id="Ellipse_5" data-name="Ellipse 5" transform="translate(1710.012 614.65) rotate(-16)" fill="none" stroke="#5037ff" stroke-width="27" stroke-dasharray="1 8">
      <ellipse cx="28.829" cy="28.406" rx="28.829" ry="28.406" stroke="none"/>
      <ellipse cx="28.829" cy="28.406" rx="15.329" ry="14.906" fill="none"/>
    </g>
    <g id="Group_46" data-name="Group 46" transform="translate(941.418 542.601)">
      <path id="Path_116" data-name="Path 116" d="M749.255,57.078q-.426.639-.872,1.4a9.068,9.068,0,0,0-1.154,2.6,3.273,3.273,0,0,0,.247,1.989,6.75,6.75,0,0,0,1.464,1.985l-.175.22-3.63-2.676,9.143-13.755,3.873,2.31-.135.248a5.88,5.88,0,0,0-2.711-.563,3.879,3.879,0,0,0-2.174,1.01,15.5,15.5,0,0,0-2.4,3.019L761.1,61.754a8.822,8.822,0,0,0,1.617.907,2.049,2.049,0,0,0,1.972-.243,4,4,0,0,0,.788-.832l.233.155-4.317,6.5-.235-.155a4,4,0,0,0,.47-1.059,2.055,2.055,0,0,0-.534-1.908,8.9,8.9,0,0,0-1.468-1.145Z" fill="#fcfcfc"/>
      <path id="Path_117" data-name="Path 117" d="M782.723,47.256l-6.488,4.716-.165-.227a3.7,3.7,0,0,0,1.01-1.186,1.484,1.484,0,0,0-.163-1.512,3.831,3.831,0,0,0-1.066-.885l-.47-.293-2.642-1.64L768.4,49.387l.477,1.736.2.791a6.037,6.037,0,0,0,.8,2.031,1.816,1.816,0,0,0,.658.563,1.744,1.744,0,0,0,.813.194,2.467,2.467,0,0,0,1.217-.4l.165.227L768.3,57.743l-.165-.227a2.528,2.528,0,0,0,.731-.924,3.268,3.268,0,0,0,.24-1.291,7.046,7.046,0,0,0-.141-1.49q-.164-.855-.6-2.488l-3.155-11.938.563-.409,11.839,7.254a20.382,20.382,0,0,0,1.99,1.119,3.116,3.116,0,0,0,1.175.308,2.183,2.183,0,0,0,.741-.124,6.641,6.641,0,0,0,1.037-.505Zm-10.436-1.318-5.792-3.606,1.764,6.535Z" fill="#fcfcfc"/>
      <path id="Path_118" data-name="Path 118" d="M786.1,37.908l1.278,4.192a8.824,8.824,0,0,0,.673,1.728,2.041,2.041,0,0,0,1.664,1.063,3.846,3.846,0,0,0,1.15-.14l.082.269-7.462,2.273-.082-.269a3.835,3.835,0,0,0,1.033-.525,2.053,2.053,0,0,0,.582-.707,1.964,1.964,0,0,0,.214-1.1,9.253,9.253,0,0,0-.412-1.814L782.2,34.273a11.021,11.021,0,0,0-.558-1.521,2.513,2.513,0,0,0-.567-.79,2,2,0,0,0-.982-.46,3.411,3.411,0,0,0-1.3.095l-.082.025-.082-.268,7.042-2.146a15.033,15.033,0,0,1,2.777-.642,4.108,4.108,0,0,1,1.827.26,4.2,4.2,0,0,1,2.683,2.858,3.524,3.524,0,0,1-.728,3.642,5.184,5.184,0,0,1-1.936,1.266q-.387.156-1.9.619Zm-.114-.374,1.145-.348a7.522,7.522,0,0,0,1.729-.712,2.745,2.745,0,0,0,.925-.965,3.716,3.716,0,0,0,.3-3.115,4.736,4.736,0,0,0-.868-1.657,3.41,3.41,0,0,0-1.348-1.012,3.227,3.227,0,0,0-1.907-.184q-.276.058-1.234.35l-.98.3Z" fill="#fcfcfc"/>
      <path id="Path_119" data-name="Path 119" d="M811.486,35.043l-.716,4.817a8.925,8.925,0,0,0-.138,1.837,2.1,2.1,0,0,0,.36,1.06,2,2,0,0,0,.691.627,3.9,3.9,0,0,0,1.1.367l-.042.278-7.715-1.148.041-.277a3.271,3.271,0,0,0,1.127-.024,2.027,2.027,0,0,0,.883-.381,2.238,2.238,0,0,0,.636-.954,8.778,8.778,0,0,0,.413-1.778l1.324-8.9q.114-.773.155-1.618a2,2,0,0,0-.8-1.736,3.4,3.4,0,0,0-1.364-.536l.042-.278,12.617,1.877-.234,3.976-.287.019a8.577,8.577,0,0,0-.35-1.459,4.088,4.088,0,0,0-1.352-1.867,4.194,4.194,0,0,0-1.294-.674,13.494,13.494,0,0,0-2.1-.449l-1.871-.278-1.06,7.123.482.072a4.338,4.338,0,0,0,3.246-.492,2.717,2.717,0,0,0,.784-.876,5.375,5.375,0,0,0,.508-1.424l.276.053-1.161,7.306-.29-.043a6.144,6.144,0,0,0-.169-1.969,2.6,2.6,0,0,0-.812-1.225,3.558,3.558,0,0,0-1.124-.618A9.847,9.847,0,0,0,811.486,35.043Z" fill="#fcfcfc"/>
      <path id="Path_120" data-name="Path 120" d="M823.322,37.682a8.365,8.365,0,0,1,2.6-2.914,8.922,8.922,0,0,1,3.719-1.451,9.907,9.907,0,0,1,3.089,0,8.654,8.654,0,0,1,2.819.953,8.481,8.481,0,0,1,2.794,2.472,9.33,9.33,0,0,1,1.579,3.519,8.182,8.182,0,0,1-.788,5.906,8.28,8.28,0,0,1-1.943,2.376,8.581,8.581,0,0,1-2.709,1.539,9.211,9.211,0,0,1-3.844.525,9.068,9.068,0,0,1-6.569-3.573,8.863,8.863,0,0,1-1.595-3.437,8.138,8.138,0,0,1-.122-3.014A8.469,8.469,0,0,1,823.322,37.682Zm2.5,1.581a9.308,9.308,0,0,0-1.179,6.165,5.732,5.732,0,0,0,.85,2.271,4.857,4.857,0,0,0,1.727,1.51,4.933,4.933,0,0,0,2.21.654,5.707,5.707,0,0,0,2.384-.5,9.417,9.417,0,0,0,4.586-4.354,12.732,12.732,0,0,0,1.323-3.517,8.91,8.91,0,0,0,.119-3.327,4.919,4.919,0,0,0-.824-2.117,5.215,5.215,0,0,0-1.765-1.49,5.149,5.149,0,0,0-2.182-.68,5.05,5.05,0,0,0-2.241.443,8.686,8.686,0,0,0-2.732,1.887A13.15,13.15,0,0,0,825.824,39.263Z" fill="#fcfcfc"/>
      <path id="Path_121" data-name="Path 121" d="M846.035,53.763l-3.319,2.766a8.864,8.864,0,0,0-1.331,1.292,2.038,2.038,0,0,0-.333,1.946,3.816,3.816,0,0,0,.576,1.005l-.216.181-4.994-5.993.216-.179a3.831,3.831,0,0,0,.886.747,2.045,2.045,0,0,0,.876.262,1.971,1.971,0,0,0,1.1-.229A9.375,9.375,0,0,0,841,54.476l6.911-5.76a9.278,9.278,0,0,0,1.339-1.291,1.974,1.974,0,0,0,.424-1.037,1.938,1.938,0,0,0-.1-.919,4.043,4.043,0,0,0-.577-1l.216-.18,3.767,4.52q.945,1.134,1.233,1.5a9.468,9.468,0,0,1,1.506,2.607,4.039,4.039,0,0,1,.079,2.373,3.882,3.882,0,0,1-1.3,1.953,3.706,3.706,0,0,1-3.266.848,4.193,4.193,0,0,1-1.052-.386,8.739,8.739,0,0,1-1.23-.827,3.7,3.7,0,0,1,.208,1.241,2.879,2.879,0,0,1-.164.8q-.147.425-.6,1.406-1.02,2.265-1.457,3.352a10.114,10.114,0,0,0-.551,1.674,1.941,1.941,0,0,0-.025.791,2.251,2.251,0,0,0,.355.73l-.216.18-2.595-3.113q.321-.665.407-.847l.944-1.9a31.477,31.477,0,0,0,1.38-3.169,6.325,6.325,0,0,0,.482-2.261,2.123,2.123,0,0,0-.186-.767,3.592,3.592,0,0,0-.514-.779Zm.206-.172.3.356a9.57,9.57,0,0,0,1.519,1.555,2.848,2.848,0,0,0,1.329.489,4.013,4.013,0,0,0,3.146-.953,4.484,4.484,0,0,0,1.155-1.447A3.752,3.752,0,0,0,854.1,51.9a3,3,0,0,0-.336-1.309,9.451,9.451,0,0,0-1.163-1.653l-.321-.384Z" fill="#fcfcfc"/>
      <path id="Path_122" data-name="Path 122" d="M849.864,75.1l4.907-1.156.055.275a10.922,10.922,0,0,0-2.658,1.9,3.906,3.906,0,0,0-1.2,3.733,3.1,3.1,0,0,0,1.462,2.032,3.27,3.27,0,0,0,2.529.327,4.23,4.23,0,0,0,1.185-.5,3.723,3.723,0,0,0,.952-.79,4.153,4.153,0,0,0,.654-1.183,18.377,18.377,0,0,0,.616-2.166,19.434,19.434,0,0,1,.541-1.96,5.163,5.163,0,0,1,.56-1.16,3.991,3.991,0,0,1,2.468-1.681,4.856,4.856,0,0,1,1.995-.064,4.72,4.72,0,0,1,1.835.728,4.358,4.358,0,0,1,1.886,2.695,4.562,4.562,0,0,1,.139,1.059,9.064,9.064,0,0,1-.136,1.377q-.093.651-.106.881a1.387,1.387,0,0,0,.026.395c.068.276.315.414.741.41l.067.273-4.69,1.229-.066-.273q1.05-.594,1.593-.97a6.714,6.714,0,0,0,.974-.821,4.386,4.386,0,0,0,1.059-1.612,3.027,3.027,0,0,0,.054-1.718,2.686,2.686,0,0,0-1.413-1.877,2.833,2.833,0,0,0-.989-.292,2.939,2.939,0,0,0-1.042.059q-1.983.483-2.574,3.323l-.4,1.866a7.75,7.75,0,0,1-1.342,3.275,4.652,4.652,0,0,1-2.637,1.67,5.247,5.247,0,0,1-2.189.067,4.774,4.774,0,0,1-2.586-1.331,5.622,5.622,0,0,1-1.458-2.723,7.616,7.616,0,0,1-.112-3.088c.1-.543.146-.865.155-.967a1.023,1.023,0,0,0-.031-.332.8.8,0,0,0-.759-.645Z" fill="#fcfcfc"/>
      <path id="Path_123" data-name="Path 123" d="M851.6,104.389l.616-8,.28.021a3.672,3.672,0,0,0,.249,1.538,1.48,1.48,0,0,0,1.256.855,3.825,3.825,0,0,0,1.365-.238l.527-.167,2.962-.948.412-5.355-1.63-.762-.732-.362a6.045,6.045,0,0,0-2.063-.71,1.813,1.813,0,0,0-.856.136,1.754,1.754,0,0,0-.675.493,2.462,2.462,0,0,0-.482,1.188l-.28-.022.419-5.453.28.022a2.522,2.522,0,0,0,.229,1.156,3.281,3.281,0,0,0,.828,1.019,6.9,6.9,0,0,0,1.225.859q.758.432,2.28,1.161l11.135,5.337-.053.693-13.2,4.312a20.089,20.089,0,0,0-2.142.79,3.074,3.074,0,0,0-1,.694,2.16,2.16,0,0,0-.386.644,6.653,6.653,0,0,0-.288,1.117Zm7.769-7.091,6.5-2.071-6.12-2.895Z" fill="#fcfcfc"/>
      <path id="Path_124" data-name="Path 124" d="M849.586,108.533l.255.117a3.993,3.993,0,0,0-.294,1.114,2.019,2.019,0,0,0,.828,1.8,9.22,9.22,0,0,0,1.632.893l2.16,1a3.671,3.671,0,0,0,1.119.282,7.9,7.9,0,0,0,2.039-.115l5.633-.9,1.011-.156a3.988,3.988,0,0,0,1.661-.583,2.156,2.156,0,0,0,.487-.449,4.705,4.705,0,0,0,.444-.737l.255.117-3.306,7.24-.256-.117a4.861,4.861,0,0,0,.371-1.253,1.062,1.062,0,0,0-.682-1.063,1.632,1.632,0,0,0-.64-.125,6.585,6.585,0,0,0-1.017.08l-6.082.858,2.843,4.412.323.5a2.586,2.586,0,0,0,1.078.989,1.506,1.506,0,0,0,1.308.047,2.1,2.1,0,0,0,.972-1.1l.255.117L859.65,126.6l-.255-.117a3.834,3.834,0,0,0,.211-.977,2.487,2.487,0,0,0-.127-.823,13.108,13.108,0,0,0-1.355-2.645l-2.708-4.3a5.115,5.115,0,0,0-.757-1.016,4.476,4.476,0,0,0-1.042-.6l-2.721-1.242a9.558,9.558,0,0,0-1.757-.662,1.989,1.989,0,0,0-1.1.069,2.512,2.512,0,0,0-1.439,1.449l-.256-.117Z" fill="#fcfcfc"/>
      <path id="Path_125" data-name="Path 125" d="M840.623,136.079l-7.074,5.007,2.263,3.2A8.88,8.88,0,0,0,837,145.717a2.049,2.049,0,0,0,1.923.478,3.992,3.992,0,0,0,1.045-.5l.162.229-6.367,4.506-.162-.229a3.961,3.961,0,0,0,.809-.812,2.053,2.053,0,0,0,.185-1.978,8.916,8.916,0,0,0-.954-1.591l-5.2-7.343a8.754,8.754,0,0,0-1.179-1.423,2.14,2.14,0,0,0-1-.517,2.183,2.183,0,0,0-.926.034,3.789,3.789,0,0,0-1.038.488l-.162-.229,6.367-4.507.162.229a3.856,3.856,0,0,0-.815.824,2.177,2.177,0,0,0-.34.861,2.06,2.06,0,0,0,.147,1.107,9.021,9.021,0,0,0,.957,1.6l2.6,3.677,7.074-5.008-2.6-3.676a8.919,8.919,0,0,0-1.183-1.429,2.045,2.045,0,0,0-1.913-.485,3.814,3.814,0,0,0-1.049.495l-.162-.229,6.367-4.506.162.229a3.832,3.832,0,0,0-.815.824,2.063,2.063,0,0,0-.33.854,1.977,1.977,0,0,0,.143,1.11,9.261,9.261,0,0,0,.962,1.592l5.2,7.343a9.2,9.2,0,0,0,1.182,1.437,1.976,1.976,0,0,0,1,.5,1.935,1.935,0,0,0,.924-.026,4.04,4.04,0,0,0,1.039-.5l.162.229-6.366,4.507-.162-.23a3.955,3.955,0,0,0,.808-.811,2.04,2.04,0,0,0,.336-.867,2.062,2.062,0,0,0-.15-1.111,8.917,8.917,0,0,0-.954-1.591Z" fill="#fcfcfc"/>
      <path id="Path_126" data-name="Path 126" d="M819.927,155l-.085-.268a3.951,3.951,0,0,0,1.017-.527,2.031,2.031,0,0,0,.584-.723,2.3,2.3,0,0,0,.15-1.468,13.316,13.316,0,0,0-.379-1.442l-2.716-8.577a10.25,10.25,0,0,0-.575-1.5,2.6,2.6,0,0,0-.587-.8,1.976,1.976,0,0,0-1-.446,3.627,3.627,0,0,0-1.355.128l-.085-.268,7.437-2.354.085.268a3.817,3.817,0,0,0-1.027.537,2.061,2.061,0,0,0-.575.712,1.974,1.974,0,0,0-.2,1.1,9.258,9.258,0,0,0,.432,1.81l2.715,8.577a9.287,9.287,0,0,0,.688,1.729,1.978,1.978,0,0,0,.8.784,1.941,1.941,0,0,0,.888.257,4.037,4.037,0,0,0,1.141-.157l.085.268Z" fill="#fcfcfc"/>
      <path id="Path_127" data-name="Path 127" d="M797.637,156.178q.763.092,1.641.147a9.11,9.11,0,0,0,2.839-.141,3.279,3.279,0,0,0,1.663-1.118,6.75,6.75,0,0,0,1.111-2.2l.276.057-.751,4.447-16.4-1.954.314-4.5.282.008a5.889,5.889,0,0,0,.72,2.674,3.889,3.889,0,0,0,1.883,1.485,15.514,15.514,0,0,0,3.779.781l1.473-12.363a8.856,8.856,0,0,0,.079-1.854,2.062,2.062,0,0,0-.4-1.048,2.032,2.032,0,0,0-.709-.6,3.921,3.921,0,0,0-1.1-.328l.033-.279,7.745.923-.033.279a3.973,3.973,0,0,0-1.156.059,2.056,2.056,0,0,0-1.463,1.338,8.864,8.864,0,0,0-.359,1.825Z" fill="#fcfcfc"/>
      <path id="Path_128" data-name="Path 128" d="M784.379,145.68a8.379,8.379,0,0,1-2.612,2.9,8.939,8.939,0,0,1-3.726,1.434,9.94,9.94,0,0,1-3.09-.015,8.645,8.645,0,0,1-2.814-.966,8.473,8.473,0,0,1-2.783-2.484,9.334,9.334,0,0,1-1.562-3.527,8.181,8.181,0,0,1,.814-5.9,8.3,8.3,0,0,1,1.954-2.368,8.557,8.557,0,0,1,2.715-1.525,9.2,9.2,0,0,1,3.847-.508,9.074,9.074,0,0,1,6.552,3.6,8.852,8.852,0,0,1,1.58,3.445,8.1,8.1,0,0,1,.109,3.014A8.466,8.466,0,0,1,784.379,145.68Zm-2.5-1.593a9.308,9.308,0,0,0,1.208-6.159,5.748,5.748,0,0,0-.84-2.275,4.868,4.868,0,0,0-1.72-1.518,4.949,4.949,0,0,0-2.207-.664,5.7,5.7,0,0,0-2.387.493,9.41,9.41,0,0,0-4.606,4.333,12.752,12.752,0,0,0-1.338,3.511,8.908,8.908,0,0,0-.134,3.327,4.913,4.913,0,0,0,.815,2.119,5.793,5.793,0,0,0,3.936,2.189,5.054,5.054,0,0,0,2.243-.433,8.7,8.7,0,0,0,2.742-1.875A13.16,13.16,0,0,0,781.884,144.087Z" fill="#fcfcfc"/>
      <path id="Path_129" data-name="Path 129" d="M741.647,112.54a3.98,3.98,0,0,0,.688.9,2.1,2.1,0,0,0,.809.451,1.733,1.733,0,0,0,.69.092,2.7,2.7,0,0,0,.782-.2,11.385,11.385,0,0,0,1.368-.623l7.964-4.186a8.652,8.652,0,0,0,1.585-1,1.95,1.95,0,0,0,.62-.919,2.826,2.826,0,0,0-.254-2l.249-.131,3.629,6.9-.248.131a3.823,3.823,0,0,0-.71-.917,2.2,2.2,0,0,0-.808-.451,2.075,2.075,0,0,0-1.122,0,8.835,8.835,0,0,0-1.7.737l-9.661,5.077,15.978-1.3.119.226-9.95,12.292,9.466-4.976a8.921,8.921,0,0,0,1.577-.987,2.049,2.049,0,0,0,.726-1.844,3.925,3.925,0,0,0-.352-1.09l.249-.131,2.618,4.981-.248.13a4.014,4.014,0,0,0-.7-.908,2.058,2.058,0,0,0-1.937-.444,8.939,8.939,0,0,0-1.7.736l-7.963,4.186q-.5.263-.923.527a3.484,3.484,0,0,0-1.037.862,1.961,1.961,0,0,0-.361,1.135,3.531,3.531,0,0,0,.369,1.4l-.248.131-2.465-4.689,9.091-10.751-14.1,1.22L741.4,112.67Z" fill="#fcfcfc"/>
      <path id="Path_130" data-name="Path 130" d="M738.582,91.892l3.992-.579.038.278a5.2,5.2,0,0,0-1.64.68,3.606,3.606,0,0,0-1.081,1.167,3.546,3.546,0,0,0-.477,1.4,9.751,9.751,0,0,0,.016,2.082l.257,2.784,7.293-.677-.067-.729a7.074,7.074,0,0,0-.3-1.652,1.872,1.872,0,0,0-.607-.863,2.212,2.212,0,0,0-.879-.427,7.274,7.274,0,0,0-1.441-.142l-.014-.281,6.519-.556.026.28a6.625,6.625,0,0,0-1.477.462,2.861,2.861,0,0,0-.918.679,2.157,2.157,0,0,0-.483,1,5.048,5.048,0,0,0-.045,1.5l.064.693,2.784-.258q1.665-.154,2.417-.31a4.005,4.005,0,0,0,1.24-.447,2.626,2.626,0,0,0,1.165-1.377,5.18,5.18,0,0,0,.2-2.268,7,7,0,0,0-.6-2.408,3.667,3.667,0,0,0-1.3-1.5,4.463,4.463,0,0,0-1.257-.6,10.564,10.564,0,0,0-1.81-.342l-.014-.28,4.853-.291,1.345,14.5-.28.026a3.993,3.993,0,0,0-.3-1.106,2.052,2.052,0,0,0-1.621-1.149,8.929,8.929,0,0,0-1.854.031l-8.958.831a8.926,8.926,0,0,0-1.829.311,2.063,2.063,0,0,0-.942.609,1.942,1.942,0,0,0-.441.807,4.027,4.027,0,0,0-.089,1.154l-.279.026Z" fill="#fcfcfc"/>
      <path id="Path_131" data-name="Path 131" d="M751.81,84.033l-.032.217-9.2-.171a14.521,14.521,0,0,1-1.738-.1,1.83,1.83,0,0,1-1.189-.579,1.416,1.416,0,0,1-.288-1.164,1.37,1.37,0,0,1,.588-.994,1.737,1.737,0,0,1,1.254-.219,11.62,11.62,0,0,1,1.516.367Zm1.478.35a1.48,1.48,0,1,1,.28,1.095A1.425,1.425,0,0,1,753.288,84.383Z" fill="#fcfcfc"/>
    </g>
  </g>
</svg>
