<svg xmlns="http://www.w3.org/2000/svg" width="224" height="19.71" viewBox="0 0 224 19.71">
  <path id="Path_43" data-name="Path 43" d="M81.027,6.98C104.853,4.667,127.22,3.849,148.8,3.685A862.487,862.487,0,0,0,15.193,6.172C39.494,7.34,59.6,7.382,81.027,6.98ZM11.252,18.906c-.207-.584.238-1.184.993-1.345,16.6-3.508,32.43-6.166,47.628-8.165C41.9,9.39,23.473,8.965,1.306,7.6A1.272,1.272,0,0,1,0,6.548,1.217,1.217,0,0,1,1.213,5.429a865.264,865.264,0,0,1,163.37-2.864,1.242,1.242,0,0,1,1.278,1.112c11,.065,21.839.246,32.6.425,7.911.132,16.091.269,24.135.354a1.279,1.279,0,0,1,1.4,1.1,1.292,1.292,0,0,1-1.419,1.087c-47.49,0-81.489.947-108.808,1.707-11.555.323-22.184.619-32.5.812A617,617,0,0,0,13,19.672a1.93,1.93,0,0,1-.376.038A1.414,1.414,0,0,1,11.252,18.906Z" fill="#fcfcfc" fill-rule="evenodd"/>
</svg>
