<svg xmlns="http://www.w3.org/2000/svg" width="307.142" height="167.889" viewBox="0 0 307.142 167.889">
  <path id="Path_51" data-name="Path 51" d="M1196.217,939.228c-10.367,12.087-17.711,27.025-24.112,41.452-2.981,6.721-5.795,13.816-5.154,20.7,7.273-1.276,13.033-7.891,16.684-13.454A80.022,80.022,0,0,0,1196.217,939.228ZM1145.369,951.9a131.021,131.021,0,0,0-34.835,40.5c-2.779,5.017-5.819,11.459-5.581,17.9,6.62-1.265,12.19-6.7,15.924-10.848A112.828,112.828,0,0,0,1142.59,963.4,39.894,39.894,0,0,0,1145.369,951.9Zm-47.743,3.573a108.223,108.223,0,0,0-36.568,55.39C1080.271,995.464,1091.481,972.6,1097.626,955.476Zm-65.068,21.772c-11.162,11.251-20.205,24.153-24.884,37.72C1019.05,1004.886,1027.261,989.681,1032.558,977.248Zm-28.529,45.095a1.951,1.951,0,0,1-1.11-.35,1.972,1.972,0,0,1-.8-2.1c5.338-21.713,20.591-39.258,32.448-50.153.493-.451.991-.908,1.5-1.354,1.437-3.948,2.476-7.216,3.123-9.385,1.668-5.575,3.26-12.122,2.422-18.436-.849-6.406-4.406-11.775-9.072-13.679-3.07-1.252-6.8-1.252-11.732.008-28.292,7.216-63.106,40.843-74.916,91.152a1.969,1.969,0,1,1-3.833-.9c9.211-39.24,38.885-84.155,77.776-94.076,5.789-1.477,10.3-1.43,14.19.162,5.949,2.429,10.462,9.03,11.489,16.814.938,7.054-.76,14.113-2.547,20.09-.273.9-.612,1.994-1.009,3.241,13.086-10.594,28.143-19.384,42.423-24.668,7.529-2.781,13.027-2.279,16.346,1.481a10.329,10.329,0,0,1,2.512,6.374,99.12,99.12,0,0,1,22.978-11.153c4.34-1.441,9.4-2.65,14.03-.711,3.877,1.619,6.893,5.373,8.271,10.046a126.776,126.776,0,0,1,37.685-17.725c3.194-.892,7.244-1.594,10.266.891a8.006,8.006,0,0,1,2.209,2.98,30.575,30.575,0,0,1,10.165-6.58c6.169-2.255,12.9-1.211,17.141,2.664,4.067,3.714,5.528,9.3,6.341,13.749,4.512,24.53-3.818,51.549-21.208,68.844a1.973,1.973,0,0,1-2.773-2.808c16.5-16.4,24.391-42.038,20.11-65.321-.707-3.841-1.924-8.625-5.118-11.546-3.176-2.9-8.336-3.627-13.151-1.872-4.115,1.5-7.6,4.453-10.379,7.275.047.328.083.653.119.973a84.021,84.021,0,0,1-13,53.824c-4.441,6.769-11.792,14.939-21.553,15.425a2.027,2.027,0,0,1-2.036-1.609c-1.591-8.55,1.686-16.963,5.177-24.842,6.9-15.552,14.9-31.716,26.612-44.554.154-.166.3-.332.457-.5a5.538,5.538,0,0,0-1.615-3.051c-1.609-1.327-4.293-.812-6.709-.14a123.231,123.231,0,0,0-37.982,18.2c.41,5.648-1.277,11.126-2.987,15.75a116.971,116.971,0,0,1-22.485,37.335c-4.548,5.041-11.614,11.821-20.5,12.385a1.974,1.974,0,0,1-2.072-1.686c-1.193-8.241,2.506-16.257,5.86-22.319a134.884,134.884,0,0,1,37.964-43.283c-.76-3.625-2.856-7.405-6.329-8.858-3.444-1.438-7.635-.4-11.281.815a95.787,95.787,0,0,0-24.611,12.425,34.593,34.593,0,0,1-1.4,4.915c-6.757,18.958-19.611,44.911-42.494,60.87a1.969,1.969,0,0,1-2.221.024,1.989,1.989,0,0,1-.831-2.072,111.963,111.963,0,0,1,43.314-65.99c.338-2.875-.137-5.057-1.431-6.525-2.137-2.421-6.187-2.553-12.035-.393-15.277,5.652-32.044,15.7-46.389,28.412-5.629,15.123-16.761,38.961-34.194,51.157A1.955,1.955,0,0,1,1004.028,1022.342Z" transform="translate(-1137.071 -596.195) rotate(-14)" fill="#34c1a8" fill-rule="evenodd"/>
</svg>
