<svg id="Group_2" data-name="Group 2" xmlns="http://www.w3.org/2000/svg" width="44.234" height="43.583" viewBox="0 0 44.234 43.583">
  <g id="B" transform="translate(0 0.053)" style="isolation: isolate">
    <g id="Group_41" data-name="Group 41" style="isolation: isolate">
      <path id="Path_112" data-name="Path 112" d="M-282.48,83.63c1.923,3.007.237,6.554-.807,7.715-1.266,1.409-4.447,3.577-6.433,1.7-1.632-1.542-.557-3.539.5-4.36l5.371-4.154a.205.205,0,0,0,.035-.3.213.213,0,0,0-.306-.051c-.06.043-7.673,5.934-10.049,7.772s-3.262,1.812-4.718,1.812a4.315,4.315,0,0,1-3.719-4.573c0-2.991,1.809-5.7,5.412-5.7h13.805a.219.219,0,0,0,.211-.2.219.219,0,0,0-.211-.2H-297.19c-3.6,0-5.412-2.706-5.412-5.7a4.315,4.315,0,0,1,3.719-4.574c1.456,0,2.342-.025,4.718,1.813s9.989,7.729,10.049,7.772a.213.213,0,0,0,.306-.051.206.206,0,0,0-.035-.3l-5.371-4.154c-1.062-.821-2.137-2.819-.5-4.36,1.986-1.876,5.167.293,6.433,1.7,1.044,1.161,2.73,4.708.807,7.715-.173.24-.156.335-.156.335S-282.652,83.39-282.48,83.63Z" transform="translate(302.602 -72.814)" fill="#fcfcfc"/>
    </g>
  </g>
  <g id="R" transform="translate(23.219)" style="isolation: isolate">
    <g id="Group_42" data-name="Group 42" style="isolation: isolate">
      <path id="Path_113" data-name="Path 113" d="M-174.587,89.183a4.4,4.4,0,0,1-3.3,4.262,3.9,3.9,0,0,1-1.1.139c-5.214,0-10.081-5.546-11.994-9.5s-2.537-5.418-2.615-5.58-.265-.092-.307-.072A.171.171,0,0,0-194,78.7c.093.19,4.778,10.049,4.778,10.049h0a3.346,3.346,0,0,1,.341,1.476,3.362,3.362,0,0,1-3.362,3.362,3.362,3.362,0,0,1-3.362-3.362V83.077c0-4.858.84-7.07,3.691-8.8s7.223-1.711,11.44-1.711a5.885,5.885,0,0,1,5.885,5.885,5.885,5.885,0,0,1-5.885,5.885h-8.548c-.19,0-.2.181-.2.239a.2.2,0,0,0,.205.2c.162,0,10.026,0,10.026,0A4.4,4.4,0,0,1-174.587,89.183Z" transform="translate(195.602 -72.569)" fill="#fcfcfc"/>
    </g>
  </g>
  <g id="O" transform="translate(0 22.621)" style="isolation: isolate">
    <g id="Group_43" data-name="Group 43" style="isolation: isolate">
      <path id="Path_114" data-name="Path 114" d="M-302.6,187.294a10.481,10.481,0,0,1,10.481-10.481,10.481,10.481,0,0,1,10.481,10.481,10.481,10.481,0,0,1-10.481,10.481A10.481,10.481,0,0,1-302.6,187.294Z" transform="translate(302.602 -176.813)" fill="#fcfcfc"/>
    </g>
  </g>
  <g id="N" transform="translate(23.219 22.522)" style="isolation: isolate">
    <g id="Group_44" data-name="Group 44" style="isolation: isolate">
      <path id="Path_115" data-name="Path 115" d="M-184.136,180.166c1.119,1.4,8.555,11.041,8.634,11.139a.2.2,0,0,0,.282,0,.205.205,0,0,0,.05-.293c-.08-.11-5.6-7.235-6.392-8.257-.03-.037-.06-.075-.088-.113l-.007-.009h0a3.889,3.889,0,0,1-.758-2.311,3.906,3.906,0,0,1,3.906-3.906,3.906,3.906,0,0,1,3.906,3.906s0,4.525,0,8.625c.005,4.527-.621,7.029-4.036,8.089s-7.361-2.089-8.275-6.153c-.812-3.606-3.4-13.408-3.442-13.573s-.244-.145-.285-.135a.2.2,0,0,0-.145.244c.038.154,3.119,12.321,3.661,14.462q.044.151.078.307l0,.014h0a4.337,4.337,0,0,1,.092.89,4.326,4.326,0,0,1-4.325,4.325,4.326,4.326,0,0,1-4.325-4.326V186.32c0-6.237,1.524-9.448,4.838-9.9C-187.962,176.031-186.284,177.487-184.136,180.166Z" transform="translate(195.602 -176.355)" fill="#fcfcfc"/>
    </g>
  </g>
</svg>
